<svg xmlns="http://www.w3.org/2000/svg" viewBox="0 0 16 16" enable-background="new 0 0 16 16"><style type="text/css">.icon-canvas-transparent{opacity:0;fill:#F6F6F6;} .icon-vs-green{fill:#78d278;} .icon-white{fill:#FFFFFF;} .icon-vs-out{fill:#F6F6F6;}</style><path class="icon-canvas-transparent" d="M16 16h-16v-16h16v16z" id="canvas"/><path class="icon-vs-out" d="M0 8c0-4.418 3.582-8 8-8s8 3.582 8 8-3.582 8-8 8-8-3.582-8-8z" id="outline" style="display: none;"/><path class="icon-vs-green" d="M8 1c-3.865 0-7 3.134-7 7 0 3.865 3.135 7 7 7s7-3.135 7-7c0-3.866-3.135-7-7-7zm-2 11v-8l6 4-6 4z" id="iconBg"/><path class="icon-white" d="M6 12v-8l6 4-6 4z" id="iconFg" style="display: none;"/></svg>