<svg width="16" height="16" viewBox="0 0 16 16" fill="none" xmlns="http://www.w3.org/2000/svg">
<path d="M13.7217 5.77832C14.1364 6.19303 14.4531 6.66699 14.6719 7.2002C14.8906 7.72884 15 8.28711 15 8.875C15 9.46289 14.8906 10.0212 14.6719 10.5498C14.4531 11.0785 14.1364 11.5501 13.7217 11.9648C13.307 12.3796 12.833 12.6986 12.2998 12.9219C11.7712 13.1406 11.2129 13.25 10.625 13.25C10.1419 13.25 9.67708 13.1771 9.23047 13.0312C8.78841 12.8809 8.37826 12.6621 8 12.375L6.25 14.125L1 8.875L7.125 2.75H12.375V4.8623C12.6211 4.97168 12.8558 5.10384 13.0791 5.25879C13.307 5.40918 13.5212 5.58236 13.7217 5.77832ZM6.25 12.8877L11.5 7.6377V5.48438C11.3587 5.44792 11.2152 5.42057 11.0693 5.40234C10.9235 5.38411 10.7754 5.375 10.625 5.375H10.1875C10.069 5.375 9.96647 5.33171 9.87988 5.24512C9.79329 5.15853 9.75 5.05599 9.75 4.9375C9.75 4.81901 9.79329 4.71647 9.87988 4.62988C9.96647 4.54329 10.069 4.5 10.1875 4.5H10.625C10.9303 4.5 11.222 4.52962 11.5 4.58887V3.625H7.4873L2.2373 8.875L6.25 12.8877ZM10.625 12.375C11.1081 12.375 11.5615 12.2839 11.9854 12.1016C12.4092 11.9147 12.7783 11.6641 13.0928 11.3496C13.4118 11.0306 13.6624 10.6592 13.8447 10.2354C14.0316 9.81152 14.125 9.35807 14.125 8.875C14.125 8.55143 14.0817 8.24154 13.9951 7.94531C13.9131 7.64453 13.7946 7.36426 13.6396 7.10449C13.4893 6.84473 13.3047 6.60775 13.0859 6.39355C12.8717 6.17936 12.6348 5.99707 12.375 5.84668V8L8.62891 11.7461C8.92057 11.9512 9.23503 12.1084 9.57227 12.2178C9.90951 12.3226 10.2604 12.375 10.625 12.375Z" fill="#C5C5C5"/>
</svg>
