<svg xmlns="http://www.w3.org/2000/svg" viewBox="0 0 16 16"><style>.icon-canvas-transparent{opacity:0;fill:#f6f6f6}.icon-vs-out{fill:#f6f6f6}.icon-vs-bg{fill:#424242}.icon-vs-fg{fill:#f0eff1}.icon-vs-red{fill:#e51400}</style><path class="icon-canvas-transparent" d="M16 16H0V0h16v16z" id="canvas"/><path class="icon-vs-out" d="M16 13h-5.606A5.497 5.497 0 0 1 0 10.5c0-1.708.779-3.234 2-4.243V0h14v13z" id="outline"/><path class="icon-vs-bg" d="M15 1v11h-4.213c.092-.322.156-.656.188-1H14V4H4v1.212c-.349.1-.683.231-1 .393V1h12z" id="iconBg"/><path class="icon-vs-fg" d="M14 4v7h-3.025A5.5 5.5 0 0 0 5.5 5c-.521 0-1.022.077-1.5.212V4h10z" id="iconFg"/><path class="icon-vs-red" d="M10 10.5a4.5 4.5 0 1 1-9 0 4.5 4.5 0 0 1 9 0z" id="colorImportance"/></svg>