<svg xmlns="http://www.w3.org/2000/svg" viewBox="0 0 16 16"><style>.icon-canvas-transparent{opacity:0;fill:#f6f6f6}.icon-vs-out{fill:#f6f6f6}.icon-vs-bg{fill:#424242}.icon-vs-fg{fill:#f0eff1}.icon-vs-action-red{fill:#a1260d}</style><path class="icon-canvas-transparent" d="M16 16H0V0h16v16z" id="canvas"/><path class="icon-vs-out" d="M16 4v9h-2v3H4V7h.465l-.495-.495L2 8.475l-2-2v-.95L1.495 4.03 0 2.535v-.949L1.586 0h.828L3.97 1.556 5.525 0h.828l2.061 2.061L6.475 4H16z" id="outline"/><path class="icon-vs-bg" d="M7.414 5l1 1L7 7.414V8h-.586l-.475.475L5.465 8H5v7h8v-3h2V5H7.414zM12 14H6v-4h1v2h5v2zm0-3.001l-.001.001H8v-1h4v.999zM14 11h-1V8H8V7h6v4z" id="iconBg"/><path class="icon-vs-fg" d="M8 8V7h5.999v4h-1V8H8zm-1.001 2h-1v4h6v-2h-5v-2zm1 0v1h4v-1h-4z" id="iconFg"/><g id="colorAction"><path class="icon-vs-action-red" d="M5.03 4.03L7 6 5.939 7.061l-1.97-1.97L2 7.061.939 6l1.97-1.97-1.97-1.97L2 1l1.97 1.97L5.939 1 7 2.06 5.03 4.03z"/></g></svg>