<svg xmlns="http://www.w3.org/2000/svg" viewBox="0 0 16 16"><style>.st0{opacity:0}.st0,.st1{fill:#f6f6f6}.st2{fill:#424242}</style><g id="outline"><path class="st0" d="M0 0h16v16H0z"/><path class="st1" d="M10 5.57l2.465 2.5L16 4.535 12.465 1 8.93 4.535l.5.465H6V1H1v13h13V9h-4z"/></g><g id="icon_x5F_bg"><path class="st2" d="M2 6h3v3H2zM2 10h3v3H2zM2 2h3v3H2z"/><path transform="rotate(-45.001 12.465 4.535)" class="st2" d="M10.965 3.035h3v3h-3z"/><path class="st2" d="M10 10h3v3h-3zM6 6h3v3H6zM6 10h3v3H6z"/></g></svg>