<svg xmlns="http://www.w3.org/2000/svg" width="16" height="16"><style type="text/css">.icon-canvas-transparent{opacity:0;fill:#F6F6F6;} .icon-vs-out{fill:#F6F6F6;} .icon-vs-blue{fill:#1BA1E2;} .icon-white{fill:#FFFFFF;}</style><path class="icon-canvas-transparent" d="M16 16h-16v-16h16v16z" id="canvas"/><path class="icon-vs-out" d="M0 8c0-4.418 3.582-8 8-8s8 3.582 8 8-3.582 8-8 8-8-3.582-8-8z" id="outline" style="display: none;"/><path class="icon-vs-blue" d="M8 1c-3.865 0-7 3.134-7 7 0 3.865 3.135 7 7 7s7-3.135 7-7c0-3.866-3.135-7-7-7zm-1 10h-2v-6h2v6zm4 0h-2v-6h2v6z" id="iconBg"/><path class="icon-white" d="M7 11h-2v-6h2v6zm4-6h-2v6h2v-6z" id="iconFg" style="display: none;"/></svg>