<svg id="Layer_1" data-name="Layer 1" xmlns="http://www.w3.org/2000/svg" viewBox="0 0 100 100"><defs><style>.cls-1{fill:#549abc;}.cls-2{fill:#12587f;}</style></defs><path class="cls-1" d="M80.16,5.57C73.64-1.57,64.23.15,63.75.25a18.18,18.18,0,0,0-12.38,9.6,23.18,23.18,0,0,0-1.66,6.2c-.46,3.37.11,4.26-.63,6.58a12.75,12.75,0,0,1-3.8,5.6,14.57,14.57,0,0,1-7.84,3.52c-.91.13-1,.06-2.51.14a41.74,41.74,0,0,0-8.77,1.35,17,17,0,0,0-9.93,9.51A17.54,17.54,0,0,0,37.16,66.27c6.35-1.85,10.36-7.16,11.39-10.71a56.46,56.46,0,0,0,1.52-8c.15-1.3.1-1.24.2-1.78a13.37,13.37,0,0,1,4.5-7.4,13,13,0,0,1,5.55-2.91c2.16-.51,3-.05,5.82-.27a29,29,0,0,0,6.35-1.32c3.1-1,8.7-4.1,11.11-10.32A17.54,17.54,0,0,0,80.16,5.57Z"/><ellipse class="cls-2" cx="67.73" cy="82.54" rx="17.33" ry="17.46"/></svg>
