<svg xmlns="http://www.w3.org/2000/svg" xmlns:serif="http://www.serif.com/" xmlns:xlink="http://www.w3.org/1999/xlink" width="100%" height="100%" style="fill-rule:evenodd;clip-rule:evenodd;stroke-linecap:round;stroke-linejoin:round" version="1.1" viewBox="0 0 28 28" xml:space="preserve">
  <g id="_Group_">
    <path d="M4.299,12.084c0,-0.292 -0.236,-0.528 -0.528,-0.528l-1.668,0c-0.291,0 -0.528,0.236 -0.528,0.528l0,1.674c0,0.292 0.237,0.528 0.528,0.528l1.668,0c0.292,0 0.528,-0.236 0.528,-0.528l0,-1.674Z" style="fill:#fff"/>
    <path d="M8.004,12.086c0,-0.291 -0.237,-0.528 -0.529,-0.528l-1.668,0c-0.291,0 -0.528,0.237 -0.528,0.528l0,1.674c0,0.292 0.237,0.528 0.528,0.528l1.668,0c0.292,0 0.529,-0.236 0.529,-0.528l0,-1.674Z" style="fill:#fff"/>
    <path d="M11.708,12.087c0,-0.291 -0.237,-0.528 -0.528,-0.528l-1.669,0c-0.291,0 -0.528,0.237 -0.528,0.528l0,1.674c0,0.292 0.237,0.529 0.528,0.529l1.669,0c0.291,0 0.528,-0.237 0.528,-0.529l0,-1.674Z" style="fill:#fff"/>
    <path d="M15.412,12.085c0,-0.291 -0.237,-0.528 -0.528,-0.528l-1.668,0c-0.292,0 -0.529,0.237 -0.529,0.528l0,1.674c0,0.292 0.237,0.528 0.529,0.528l1.668,0c0.291,0 0.528,-0.236 0.528,-0.528l0,-1.674Z" style="fill:#fff"/>
    <path d="M19.116,12.088c0,-0.291 -0.237,-0.528 -0.528,-0.528l-1.668,0c-0.292,0 -0.528,0.237 -0.528,0.528l0,1.675c0,0.291 0.236,0.528 0.528,0.528l1.668,0c0.291,0 0.528,-0.237 0.528,-0.528l0,-1.675Z" style="fill:#fff"/>
    <path d="M8.004,8.265c0,-0.292 -0.237,-0.528 -0.529,-0.528l-1.668,0c-0.291,0 -0.528,0.236 -0.528,0.528l0,1.674c0,0.291 0.237,0.528 0.528,0.528l1.668,0c0.292,0 0.529,-0.237 0.529,-0.528l0,-1.674Z" style="fill:#fff"/>
    <path d="M11.708,8.266c0,-0.292 -0.237,-0.528 -0.528,-0.528l-1.669,0c-0.291,0 -0.528,0.236 -0.528,0.528l0,1.674c0,0.292 0.237,0.528 0.528,0.528l1.669,0c0.291,0 0.528,-0.236 0.528,-0.528l0,-1.674Z" style="fill:#fff"/>
    <path d="M15.412,8.264c0,-0.292 -0.237,-0.528 -0.528,-0.528l-1.668,0c-0.292,0 -0.529,0.236 -0.529,0.528l0,1.674c0,0.291 0.237,0.528 0.529,0.528l1.668,0c0.291,0 0.528,-0.237 0.528,-0.528l0,-1.674Z" style="fill:#fff"/>
    <path d="M15.412,4.446c0,-0.292 -0.237,-0.528 -0.528,-0.528l-1.668,0c-0.292,0 -0.529,0.236 -0.529,0.528l0,1.674c0,0.291 0.237,0.528 0.529,0.528l1.668,0c0.291,0 0.528,-0.237 0.528,-0.528l0,-1.674Z" style="fill:#fff"/>
    <path d="M26.873,15.232c0,0 -1.95,-1.362 -3.342,-0.608c-0.118,-1.233 -0.73,-2.347 -1.671,-3.041c-0.656,1.016 -0.89,2.289 -0.646,3.503c0.006,0.049 0.008,0.098 0.008,0.146c0,0.668 -0.502,1.217 -1.113,1.217c-0.003,0 -0.006,0 -0.008,0l-18.846,0c0,7.603 5.003,9.744 9.091,9.744c5.553,0.033 9.967,-3.245 12.695,-8.528c1.544,-0.147 2.95,-1.04 3.832,-2.433Z" style="fill:none;fill-rule:nonzero;stroke:#fff;stroke-width:1.97px"/>
  </g>
</svg>
