<?xml version="1.0" encoding="UTF-8" standalone="no"?>
<svg
   xmlns:dc="http://purl.org/dc/elements/1.1/"
   xmlns:cc="http://creativecommons.org/ns#"
   xmlns:rdf="http://www.w3.org/1999/02/22-rdf-syntax-ns#"
   xmlns:svg="http://www.w3.org/2000/svg"
   xmlns="http://www.w3.org/2000/svg"
   xmlns:sodipodi="http://sodipodi.sourceforge.net/DTD/sodipodi-0.dtd"
   xmlns:inkscape="http://www.inkscape.org/namespaces/inkscape"
   width="24"
   height="24"
   viewBox="0 0 24 24"
   fill="none"
   version="1.1"
   id="svg34"
   sodipodi:docname="docker.svg"
   inkscape:version="0.92.3 (2405546, 2018-03-11)">
  <metadata
     id="metadata40">
    <rdf:RDF>
      <cc:Work
         rdf:about="">
        <dc:format>image/svg+xml</dc:format>
        <dc:type
           rdf:resource="http://purl.org/dc/dcmitype/StillImage" />
        <dc:title></dc:title>
      </cc:Work>
    </rdf:RDF>
  </metadata>
  <defs
     id="defs38" />
  <sodipodi:namedview
     pagecolor="#ff6f1d"
     bordercolor="#666666"
     borderopacity="1"
     objecttolerance="10"
     gridtolerance="10"
     guidetolerance="10"
     inkscape:pageopacity="0"
     inkscape:pageshadow="2"
     inkscape:window-width="1366"
     inkscape:window-height="740"
     id="namedview36"
     showgrid="false"
     inkscape:pagecheckerboard="false"
     inkscape:zoom="6.9532165"
     inkscape:cx="4.594229"
     inkscape:cy="15.901386"
     inkscape:window-x="0"
     inkscape:window-y="0"
     inkscape:window-maximized="1"
     inkscape:current-layer="layer7" />
  <g
     inkscape:groupmode="layer"
     id="layer5"
     inkscape:label="Body"
     style="display:inline" />
  <g
     inkscape:groupmode="layer"
     id="layer6"
     inkscape:label="Eye"
     style="display:inline" />
  <g
     inkscape:groupmode="layer"
     id="layer7"
     inkscape:label="Containers"
     style="display:inline">
    <g
       id="g4569"
       transform="translate(-5.3724895e-8,-1.4937927)">
      <g
         transform="matrix(0.99449524,0,0,0.99999353,0.06605737,1.7458297)"
         id="g932"
         style="display:inline">
        <path
           inkscape:connector-curvature="0"
           style="fill:none;stroke:#fefefe;stroke-width:1.60000002;stroke-linecap:round;stroke-linejoin:round;stroke-miterlimit:10;stroke-dasharray:none;stroke-opacity:1"
           stroke-miterlimit="10"
           d="m 15.524074,11.945498 c 1.729882,0 2.508679,-0.656276 2.755603,-0.804616 -0.324851,-0.424374 -0.490093,-0.938406 -0.539854,-1.4881174 -0.153975,-1.7012422 0.806496,-2.4955318 0.806496,-2.4955318 0,0 1.397985,0.7938202 1.732693,2.5593754 1.849586,-0.5074624 2.987502,0.4309438 2.987502,0.4309438 0,0 -0.578815,2.032195 -3.512333,1.920938 -1.993232,4.964306 -6.259485,7.388014 -11.5096804,7.388014 -5.65203,0 -7.51100372,-4.114623 -7.51100372,-6.685263 0,-0.465214 0.0647824,-0.825743 0.0647824,-0.825743 0,0 12.85696572,0 14.72579472,0 z"
           id="path2" />
        <path
           sodipodi:nodetypes="cc"
           inkscape:connector-curvature="0"
           style="fill:none;stroke:#fcffff;stroke-width:1.60000002;stroke-linecap:round;stroke-linejoin:round;stroke-miterlimit:10;stroke-dasharray:none;stroke-opacity:1"
           stroke-miterlimit="10"
           d="M 5.467576,15.815075 2.349118,16.559652"
           id="path8" />
      </g>
      <circle
         r="0.5"
         cy="16.670015"
         cx="8.2910395"
         id="path935"
         style="display:inline;opacity:1;fill:#ffffff;fill-opacity:1;stroke:#fcffff;stroke-width:1;stroke-miterlimit:10;stroke-dasharray:none;stroke-opacity:1" />
      <path
         id="path6"
         d="m 12.922481,10.318682 h 2.651991 v 2.66665 h -2.651991 z m -2.651992,0 h 2.651992 v 2.66665 h -2.651992 z m -2.6519867,0 h 2.6519867 v 2.66665 H 7.6185023 Z m -2.6519875,0 h 2.6519875 v 2.66665 H 4.9665148 Z m -2.6519878,0 h 2.6519878 v 2.66665 H 2.314527 Z m 7.955962,-5.3332992 h 2.651992 v 2.6666481 h -2.651992 z m 0,2.6666481 h 2.651992 v 2.6666511 h -2.651992 z m -2.6519867,0 H 10.270489 V 10.318682 H 7.6185023 Z m -2.6519875,0 H 7.6185023 V 10.318682 H 4.9665148 Z"
         stroke-miterlimit="10"
         style="display:inline;fill:#ffffff;fill-opacity:1;stroke:none;stroke-width:1.8127619;stroke-miterlimit:10;stroke-dasharray:none;stroke-opacity:1"
         inkscape:connector-curvature="0" />
    </g>
  </g>
</svg>
