<svg xmlns="http://www.w3.org/2000/svg" viewBox="0 0 16 16"><style>.icon-canvas-transparent{opacity:0;fill:#f6f6f6}.icon-vs-out{fill:#f6f6f6}.icon-vs-bg{fill:#424242}.icon-vs-fg{fill:#f0eff1}.icon-vs-action-blue{fill:#00539c}</style><path class="icon-canvas-transparent" d="M16 16H0V0h16v16z" id="canvas"/><path class="icon-vs-out" d="M16 9.402l-.852-.852L14 9.695V6h-1V3.586L9.414 0H0v16h12l1-.076v-.971l3-3.011v-2.54z" id="outline"/><path class="icon-vs-bg" d="M4 6.707L2.646 5.354l.707-.707.647.646 2.646-2.646.707.707L4 6.707zM3 12h1v-1H3v1zm8.077 2H2V2h6.289l2.728 2.777L11 6h1V4L9 1H1v14h11v-.076L11.077 14zM4 8H3v1h1V8zm5 3.922L8.078 11H5v1h4v-.078zM5 8v1h4.42l.449-.449.131.13V8H5zm2-2h3V5H7v1z" id="iconBg"/><path class="icon-vs-fg" d="M9 11.922V12H5v-1h3.078l-.329-.329L9.42 9H5V8h5v.681l1 .997V4.759L8.254 2H2v12h9v-.077l-2-2.001zM10 5v1H7V5h3zm-6 7H3v-1h1v1zm0-3H3V8h1v1zM2.646 5.354l.707-.707.647.646 2.646-2.646.004-.004.707.707-.003.004L4 6.707 2.646 5.354z" id="iconFg"/><path class="icon-vs-action-blue" d="M15.148 9.964l.707.707-3.34 3.352-3.352-3.352.707-.707L12 12.086V7h1v5.104l2.148-2.14z" id="colorAction"/></svg>