<svg xmlns="http://www.w3.org/2000/svg" viewBox="0 0 16 16"><style>.icon-canvas-transparent{opacity:0;fill:#f6f6f6}.icon-vs-out{fill:#f6f6f6}.icon-vs-bg{fill:#424242}.icon-vs-fg{fill:#f0eff1}</style><path class="icon-canvas-transparent" d="M16 16H0V0h16v16z" id="canvas"/><path class="icon-vs-out" d="M13.879 0l-2.214 2.214a4.162 4.162 0 0 0-1.554-.302c-1.066 0-2.094.415-2.818 1.139L4.465 5.878a3.976 3.976 0 0 0-1.172 2.829c0 .54.109 1.068.32 1.56l-2.331 2.33 2.121 2.121 2.331-2.331a3.94 3.94 0 0 0 1.559.32 3.973 3.973 0 0 0 2.828-1.172l2.828-2.828a3.981 3.981 0 0 0 .85-4.385L16 2.122v-.264L14.142 0h-.263z" id="outline"/><path class="icon-vs-fg" d="M8.707 10.121c-.756.756-2.072.756-2.828 0a1.986 1.986 0 0 1-.586-1.414c0-.534.208-1.036.586-1.414L6.94 6.232 9.768 9.06l-1.061 1.061zm2.828-2.828l-1.061 1.061-2.828-2.829 1.061-1.061c.756-.755 2.072-.755 2.828 0 .78.78.78 2.049 0 2.829z" id="iconFg"/><path class="icon-vs-bg" d="M14.718 1.99l-.707-.707-2.16 2.159c-1.155-.798-2.837-.698-3.851.315L5.172 6.586a2.978 2.978 0 0 0-.319 3.854l-2.156 2.156.707.707 2.156-2.157a2.982 2.982 0 0 0 3.854-.319L12.242 8a2.997 2.997 0 0 0 .318-3.853l2.158-2.157zm-6.011 8.131c-.756.756-2.072.756-2.828 0a1.986 1.986 0 0 1-.586-1.414c0-.534.208-1.036.586-1.414L6.94 6.232 9.768 9.06l-1.061 1.061zm2.828-2.828l-1.061 1.061-2.828-2.829 1.061-1.061c.756-.755 2.072-.755 2.828 0 .78.78.78 2.049 0 2.829z" id="iconBg"/></svg>