<svg xmlns="http://www.w3.org/2000/svg" viewBox="0 0 16 16"><style>.icon-vs-out{fill:#f6f6f6}.icon-vs-fg{fill:#f0eff1}.icon-canvas-transparent{opacity:0;fill:#f6f6f6}.icon-vs-action-green{fill:#388a34}</style><path class="icon-canvas-transparent" d="M16 0v16H0V0h16z" id="canvas"/><path class="icon-vs-out" d="M13 3v5c0 2.199-1.454 4.107-3.5 4.75V16h-3v-3.25C4.454 12.107 3 10.199 3 8V3h2V0h6v3h2z" id="outline" style="display: none;"/><path class="icon-vs-fg" d="M11 5v3c0 1.654-1.346 3-3 3S5 9.654 5 8V5h6z" id="iconFg" style="display: none;"/><path class="icon-vs-action-green" d="M10 4V1H9v3H7V1H6v3H4v4c0 2.035 1.532 3.7 3.5 3.95V15h1v-3.05C10.468 11.7 12 10.035 12 8V4h-2zm-2 7c-1.654 0-3-1.346-3-3V5h6v3c0 1.654-1.346 3-3 3z" id="iconBg"/></svg>