<svg xmlns="http://www.w3.org/2000/svg" viewBox="0 0 16 16"><style>.icon-canvas-transparent{opacity:0;fill:#f6f6f6}.icon-vs-out{fill:#f6f6f6}.icon-vs-blue{fill:#1ba1e2}.icon-white{fill:#fff}</style><path class="icon-canvas-transparent" d="M16 16H0V0h16v16z" id="canvas"/><path class="icon-vs-out" d="M0 8a8 8 0 1 1 16 0A8 8 0 0 1 0 8z" id="outline" style="display: none;"/><path class="icon-vs-blue" d="M8 1C4.135 1 1 4.135 1 8s3.135 7 7 7 7-3.135 7-7-3.135-7-7-7zm1 12H7V6h2v7zm0-8H7V3h2v2z" id="iconBg"/><g id="iconFg" style="display: none;"><path class="icon-white" d="M7 6h2v7H7V6zm0-1h2V3H7v2z"/></g></svg>