<svg xmlns="http://www.w3.org/2000/svg" viewBox="0 0 16 16"><style>.st0{opacity:0}.st0,.st1{fill:#f6f6f6}.st2{fill:#424242}.st3{fill:#f0eff1}</style><g id="outline" style="display: none;"><path class="st0" d="M0 0h16v16H0z"/><path class="st1" d="M16 7h-4V6h-1V3H6v3H5v1H1v5h4v1h7v-1h4z"/></g><path class="st2" d="M11 8V7h-1V4H7v3H6v1H2v3h4v1h5v-1h4V8h-4zm-5 2H3V9h3v1zm3-3H8V5h1v2zm5 3h-3V9h3v1z" id="icon_x5F_bg"/><path class="st3" d="M9 7H8V5h1v2zM6 9H3v1h3V9zm5 0v1h3V9h-3z" id="icon_x5F_fg"/></svg>