<svg width="16" height="16" viewBox="0 0 16 16" fill="none" xmlns="http://www.w3.org/2000/svg">
<rect width="16" height="16" fill="white"/>
<path d="M8 1C8.64258 1 9.26237 1.08431 9.85938 1.25293C10.4564 1.41699 11.0124 1.65169 11.5273 1.95703C12.0469 2.26237 12.5186 2.62923 12.9424 3.05762C13.3708 3.48145 13.7376 3.95312 14.043 4.47266C14.3483 4.98763 14.583 5.54362 14.7471 6.14062C14.9157 6.73763 15 7.35742 15 8C15 8.64258 14.9157 9.26237 14.7471 9.85938C14.583 10.4564 14.3483 11.0146 14.043 11.5342C13.7376 12.0492 13.3708 12.5208 12.9424 12.9492C12.5186 13.373 12.0469 13.7376 11.5273 14.043C11.0124 14.3483 10.4564 14.5853 9.85938 14.7539C9.26237 14.918 8.64258 15 8 15C7.35742 15 6.73763 14.918 6.14062 14.7539C5.54362 14.5853 4.98535 14.3483 4.46582 14.043C3.95085 13.7376 3.47917 13.373 3.05078 12.9492C2.62695 12.5208 2.26237 12.0492 1.95703 11.5342C1.65169 11.0146 1.41471 10.4564 1.24609 9.85938C1.08203 9.26237 1 8.64258 1 8C1 7.35742 1.08203 6.73763 1.24609 6.14062C1.41471 5.54362 1.65169 4.98763 1.95703 4.47266C2.26237 3.95312 2.62695 3.48145 3.05078 3.05762C3.47917 2.62923 3.95085 2.26237 4.46582 1.95703C4.98535 1.65169 5.54362 1.41699 6.14062 1.25293C6.73763 1.08431 7.35742 1 8 1ZM8 14.125C8.5651 14.125 9.10742 14.0521 9.62695 13.9062C10.151 13.7604 10.6387 13.5553 11.0898 13.291C11.5456 13.0221 11.958 12.7031 12.3271 12.334C12.7008 11.9603 13.0199 11.5479 13.2842 11.0967C13.5531 10.641 13.7604 10.1533 13.9062 9.63379C14.0521 9.1097 14.125 8.5651 14.125 8C14.125 7.4349 14.0521 6.89258 13.9062 6.37305C13.7604 5.84896 13.5531 5.36133 13.2842 4.91016C13.0199 4.45443 12.7008 4.04199 12.3271 3.67285C11.958 3.29915 11.5456 2.98014 11.0898 2.71582C10.6387 2.44694 10.151 2.23958 9.62695 2.09375C9.10742 1.94792 8.5651 1.875 8 1.875C7.4349 1.875 6.8903 1.94792 6.36621 2.09375C5.84668 2.23958 5.35905 2.44694 4.90332 2.71582C4.45215 2.98014 4.03971 3.29915 3.66602 3.67285C3.29688 4.04199 2.97786 4.45443 2.70898 4.91016C2.44466 5.36133 2.23958 5.84896 2.09375 6.37305C1.94792 6.89258 1.875 7.4349 1.875 8C1.875 8.5651 1.94792 9.1097 2.09375 9.63379C2.23958 10.1533 2.44466 10.641 2.70898 11.0967C2.97786 11.5479 3.29688 11.9603 3.66602 12.334C4.03971 12.7031 4.45215 13.0221 4.90332 13.291C5.35905 13.5553 5.84668 13.7604 6.36621 13.9062C6.8903 14.0521 7.4349 14.125 8 14.125ZM8.875 5.375H9.75V10.625H8.875V5.375ZM6.25 5.375H7.125V10.625H6.25V5.375Z" fill="#007ACC"/>
</svg>
