<svg xmlns="http://www.w3.org/2000/svg" viewBox="0 0 16 16"><style>.icon-canvas-transparent{opacity:0;fill:#f6f6f6}.icon-vs-out{fill:#f6f6f6}.icon-vs-bg{fill:#424242}.icon-vs-fg{fill:#f0eff1}.icon-vs-action-orange{fill:#c27d1a}</style><path class="icon-canvas-transparent" d="M16 16H0V0h16v16z" id="canvas"/><path class="icon-vs-out" d="M2 16V3h2V2h1C5.4.8 6.7 0 8 0s2.6.8 3 2h1v1h2v13H2z" id="outline" style="display: none;"/><path class="icon-vs-fg" d="M7 3c0-.6.5-1 1-1 .6 0 1 .4 1 1s-.4 1-1 1c-.5 0-1-.5-1-1zm5 2H4v9h8V5z" id="iconFg" style="display: none;"/><path class="icon-vs-bg" d="M10 3c0-1.1-.9-2-2-2s-2 .9-2 2H5v2h6V3h-1zM8 4c-.5 0-1-.4-1-1s.4-1 1-1 1 .4 1 1-.4 1-1 1z" id="iconBg"/><path class="icon-vs-action-orange" d="M13 4v11H3V4h2v1H4v9h8V5h-1V4h2z" id="colorImportance"/></svg>