<svg xmlns="http://www.w3.org/2000/svg" viewBox="0 0 16 16">
    <style type="text/css">.icon-canvas-transparent{opacity:0;fill:#F6F6F6;} .icon-vs-out{fill:#F6F6F6;} .icon-asp-html-wpf-blue{fill:#0095D7;}</style>
    <path class="icon-canvas-transparent" d="M16 16h-16v-16h16v16z" id="canvas"/>
    <path class="icon-vs-out" d="M16 8c0 4.418-3.582 8-8 8s-8-3.582-8-8 3.582-8 8-8 8 3.582 8 8z" id="outline" style="display: none;"/>
    <path class="icon-asp-html-wpf-blue" d="M15 8l-.012-.236c-.126-3.756-3.202-6.764-6.988-6.764-3.866 0-7 3.134-7 7 0 .204.012.405.03.604l.07.532.002.018c.489 2.942 2.807 5.258 5.75 5.745l.021.003.526.068c.199.018.398.03.601.03.231 0 .46-.013.685-.034 3.544-.345 6.315-3.331 6.315-6.966zm-4.031-1.662c.727-.113 1.494-.308 2.316-.604.299.696.465 1.461.465 2.266l-.019.374c-1.038.452-1.972.722-2.848.863.11-.612.167-1.194.161-1.743-.003-.4-.034-.782-.075-1.156zm1.78-1.578c-.686.236-1.334.4-1.951.496-.214-1.031-.551-1.919-.917-2.685 1.176.408 2.179 1.18 2.868 2.189zm-4.749 8.99l-.504-.025c-.503-1.116-.888-2.225-1.128-3.306.523.052 1.066.086 1.626.092l.403.002c.348 0 .699-.01 1.054-.027-.306.991-.759 2.077-1.353 3.26l-.098.004zm.006-4.329c-.636-.007-1.248-.054-1.838-.123-.084-.61-.129-1.209-.123-1.792.004-.387.031-.756.067-1.115.603.068 1.23.113 1.882.12l.403.003c.488 0 .982-.016 1.487-.055.038.34.066.686.07 1.047.006.577-.068 1.202-.209 1.869-.583.041-1.157.049-1.739.046zm-.006-7.171l.488.024c.468.812.944 1.846 1.221 3.108-.571.039-1.133.044-1.703.039-.6-.007-1.181-.048-1.739-.11.233-1.216.618-2.215 1.001-3.009.24-.031.483-.052.732-.052zm-2.083.395c-.29.723-.556 1.554-.732 2.508-.692-.12-1.325-.272-1.903-.435.648-.93 1.564-1.655 2.635-2.073zm-3.667 5.355c0-.819.174-1.597.482-2.303.686.202 1.448.394 2.3.539-.042.406-.072.821-.077 1.258-.006.535.034 1.083.099 1.637-1.076-.195-2.006-.464-2.783-.728l-.021-.403zm.236 1.625c.798.244 1.712.479 2.744.644.206 1.047.542 2.116.981 3.193-1.789-.585-3.19-2.023-3.725-3.837zm6.898 3.95c.546-1.146.967-2.215 1.238-3.193.894-.115 1.845-.343 2.886-.734-.578 1.936-2.151 3.439-4.124 3.927z" id="iconBg"/>
</svg>
