<?xml version="1.0" encoding="utf-8"?>
<!-- Generator: Adobe Illustrator 19.1.0, SVG Export Plug-In . SVG Version: 6.00 Build 0)  -->
<svg version="1.1" id="Layer_2" xmlns="http://www.w3.org/2000/svg" xmlns:xlink="http://www.w3.org/1999/xlink" x="0px" y="0px"
	 viewBox="0 0 120 120" style="enable-background:new 0 0 120 120;" xml:space="preserve">
<style type="text/css">
	.st0{fill:#263237;}
	.st1{clip-path:url(#SVGID_2_);fill-rule:evenodd;clip-rule:evenodd;fill:#263237;}
	.st2{fill-rule:evenodd;clip-rule:evenodd;fill:#E7E7E7;}
	.st3{fill-rule:evenodd;clip-rule:evenodd;fill:#3A4E55;}
	.st4{fill:#08AADA;}
	.st5{fill:#2BB8EB;}
	.st6{fill:#088CB9;}
	.st7{fill:#069BC6;}
	.st8{display:none;}
	.st9{display:inline;fill:#3A4E55;}
	.st10{fill-rule:evenodd;clip-rule:evenodd;fill:#00ACD2;}
	.st11{fill-rule:evenodd;clip-rule:evenodd;fill:#26C2EE;}
	.st12{fill-rule:evenodd;clip-rule:evenodd;fill:#D4EDF1;}
	.st13{fill:#C0DBE0;}
	.st14{fill:#D4EDF1;}
</style>
<circle class="st0" cx="60" cy="60" r="60"/>
<g>
	<g>
		<defs>
			<circle id="SVGID_1_" cx="60" cy="60" r="60"/>
		</defs>
		<clipPath id="SVGID_2_">
			<use xlink:href="#SVGID_1_"  style="overflow:visible;"/>
		</clipPath>
		<rect x="10.8" y="18.2" class="st1" width="98.4" height="87.8"/>
	</g>
	<g>
		<path id="docker_1_" class="st2" d="M77.6,88.3c1.6-1.4,3.3-2.8,4.9-4.2c0.6-0.5,1.2-1,1.7-1.5c-0.4-0.6-1.2-1-1.8-1.2
			c-1.3-0.5-2.5-0.3-3.7,0.3c-1.5,0.9-2.2,2.3-2.1,4c0,0.7,0.2,1.3,0.6,1.9C77.3,88,77.5,88.1,77.6,88.3 M79.5,89.7
			c0.8,0.3,1.7,0.2,2.5,0.1c0.4-0.2,1.5-0.6,1.9-0.6l0.1,0l0.1,0c0.2,0.1,0.5,0.3,0.6,0.5c0.3,0.6,0.1,1.1-0.4,1.5L84,91.3
			c-2.1,1.2-4.3,1-6.4-0.1c-1-0.5-1.7-1.3-2.3-2.3l-0.1-0.2c-1.3-2.3-1.2-4.7,0.4-6.9c0.5-0.8,1.2-1.3,2-1.8l0.3-0.2
			c2-1.1,4.1-1.1,6.1-0.1c1.1,0.5,2,1.3,2.6,2.4l0.1,0.2c0.4,0.8-0.1,1.4-0.7,1.9c-0.7,0.5-1.4,1.2-2,1.7
			C82.4,87.1,81,88.4,79.5,89.7z M95.1,79.1h0.2c0.7,0,1.1,0.4,1.1,1.1c0,0.9-0.9,1.1-1.6,1.1c-1,0-1.9,0.6-2.6,1.3
			c-0.8,0.8-1.2,1.9-1.2,3.1V91c0,0.6-0.4,1.1-1,1.1h-0.2c-0.6,0-1-0.5-1-1.1v-5.6c0-2.2,1-3.9,2.8-5.1
			C92.6,79.5,93.8,79.1,95.1,79.1z M67.8,82.9c0.9-0.9,1.7-1.7,2.6-2.5c0.2-0.2,1.2-1.2,1.5-1.2h0.4l0,0c0.5,0.1,0.9,0.4,0.9,1v0.2
			c0,0.4-0.4,0.8-0.7,1c-0.5,0.5-1,1-1.5,1.6l-2.6,2.7c1.1,1.1,2.3,2.3,3.4,3.4c0.3,0.3,0.6,0.6,0.9,1c0.1,0.1,0.3,0.3,0.4,0.4
			c0.1,0.1,0.2,0.3,0.2,0.5v0.2l0,0.1c-0.1,0.5-0.4,0.9-1,0.9H72c-0.4,0-0.8-0.4-1-0.6c-0.5-0.5-1-1-1.5-1.5l-1.7-1.7V91
			c0,0.6-0.4,1.1-1,1.1h-0.2c-0.6,0-1-0.5-1-1.1V76.1c0-0.6,0.4-1.1,1-1.1h0.2c0.6,0,1,0.5,1,1.1V82.9z M60.7,81.4
			c-0.3-0.2-0.9-0.2-1.3-0.2c-1.8-0.1-3.2,1-3.9,2.6c-0.3,0.6-0.4,1.1-0.4,1.8c0,1.9,1,3.2,2.7,4c0.6,0.3,1.4,0.3,2.1,0.3
			c0.6,0,1.4-0.4,1.9-0.6l0.1,0h0.4l0,0c0.5,0.1,0.9,0.4,0.9,1v0.2c0,1.3-2.4,1.6-3.4,1.7c-3.3,0.2-5.7-1.6-6.7-4.7
			c-0.2-0.5-0.2-1.1-0.2-1.6v-0.4c0-2.4,1.2-4.3,3.2-5.5c0.9-0.6,2-0.8,3.1-0.8h0.4c1.2,0,2.2,0.3,3.2,1l0.1,0.1l0,0.1
			c0.1,0.2,0.2,0.4,0.2,0.6v0.2c0,0.6-0.4,0.9-0.9,1l0,0H62C61.7,81.9,61,81.6,60.7,81.4z M40.7,85.6c0,1.7,0.8,2.9,2.2,3.7
			c0.7,0.4,1.4,0.6,2.2,0.6c1.6,0,2.9-0.8,3.7-2.2c0.4-0.7,0.6-1.4,0.6-2.2c0-1.5-0.7-2.7-2-3.6c-0.7-0.5-1.5-0.7-2.3-0.7
			c-1.8,0-3.2,0.9-3.9,2.6C40.8,84.4,40.7,85,40.7,85.6z M44.8,79.1h0.3c2.5,0,4.5,1.2,5.7,3.4c0.5,0.9,0.8,1.9,0.8,2.9v0.4
			c0,2.4-1.2,4.3-3.2,5.5c-0.9,0.6-2,0.8-3.1,0.8h-0.4c-2.4,0-4.3-1.2-5.5-3.2c-0.6-0.9-0.8-2-0.8-3.1v-0.4c0-2.4,1.2-4.3,3.2-5.5
			C42.7,79.3,43.7,79.1,44.8,79.1z M26.4,85.6c0,1.7,0.8,3,2.3,3.8c0.6,0.3,1.3,0.5,2,0.5c1.7,0,2.9-0.8,3.8-2.2
			c0.4-0.7,0.6-1.4,0.6-2.2c0-1.5-0.7-2.6-1.9-3.5c-0.7-0.5-1.5-0.8-2.4-0.8c-1.8,0-3.2,0.9-3.9,2.6C26.5,84.4,26.4,85,26.4,85.6z
			 M35,80.7v-4.6c0-0.6,0.4-1.1,1-1.1h0.2c0.6,0,1,0.5,1,1.1v9.7c0,2.4-1.2,4.3-3.2,5.5c-0.9,0.6-2,0.8-3.1,0.8h-0.4
			c-2.4,0-4.3-1.2-5.5-3.2c-0.6-0.9-0.8-2-0.8-3.1v-0.4c0-2.4,1.2-4.3,3.2-5.5c0.9-0.6,2-0.8,3.1-0.8h0.4
			C32.5,79.1,33.9,79.7,35,80.7z"/>
		<path id="outline_1_" class="st3" d="M65.8,44.4h6.5v6.6h3.3c1.5,0,3.1-0.3,4.5-0.8c0.7-0.2,1.5-0.6,2.2-1
			c-0.9-1.2-1.4-2.7-1.5-4.2c-0.2-2,0.2-4.6,1.6-6.2l0.7-0.8l0.8,0.7c2,1.6,3.8,3.9,4.1,6.5c2.5-0.7,5.3-0.6,7.5,0.7l0.9,0.5
			l-0.5,0.9c-1.8,3.6-5.7,4.7-9.4,4.5c-5.6,13.9-17.8,20.5-32.5,20.5c-7.6,0-14.6-2.9-18.6-9.6l-0.1-0.1l-0.6-1.2
			c-1.3-3-1.8-6.2-1.5-9.5l0.1-1h5.5v-6.6h6.5V38h12.9v-6.5h7.8V44.4z"/>
		<g id="body_colors_1_">
			<path class="st4" d="M86.7,46.9c0.4-3.4-2.1-6-3.6-7.3c-1.8,2.1-2.1,7.5,0.7,9.8c-1.6,1.4-4.9,2.7-8.3,2.7H34.1
				c-0.3,3.6,0.3,6.8,1.7,9.6l0.5,0.9c0.3,0.5,0.6,1,1,1.5h0c1.7,0.1,3.3,0.1,4.7,0.1c0,0,0,0,0,0c2.8-0.1,5.1-0.4,6.9-1
				c0.3-0.1,0.5,0,0.6,0.3c0.1,0.3,0,0.5-0.3,0.6c-0.2,0.1-0.5,0.2-0.7,0.2c0,0,0,0,0,0c-1.4,0.4-2.8,0.7-4.7,0.8c0.1,0-0.1,0-0.1,0
				c-0.1,0-0.1,0-0.2,0c-0.7,0-1.6,0.1-2.4,0.1c-0.9,0-1.8,0-2.8-0.1l0,0c3.5,3.9,8.8,6.2,15.6,6.2c14.3,0,26.5-6.3,31.8-20.6
				c3.8,0.4,7.5-0.6,9.1-3.8C92.1,45.4,88.7,45.9,86.7,46.9z"/>
			<path class="st5" d="M86.7,46.9c0.4-3.4-2.1-6-3.6-7.3c-1.8,2.1-2.1,7.5,0.7,9.8c-1.6,1.4-4.9,2.7-8.3,2.7h-39
				c-0.2,5.4,1.8,9.6,5.4,12.1c0,0,0,0,0,0c2.8-0.1,5.1-0.4,6.9-1c0.3-0.1,0.5,0,0.6,0.3c0.1,0.3,0,0.5-0.3,0.6
				c-0.2,0.1-0.5,0.2-0.7,0.2c0,0,0,0,0,0c-1.4,0.4-3,0.7-4.9,0.8c0,0,0,0,0,0c4.9,2.5,11.9,2.5,20-0.6C72.7,61,81.1,54.4,87,46.8
				C86.9,46.8,86.8,46.9,86.7,46.9z"/>
			<path class="st6" d="M34.2,56.4c0.3,1.9,0.8,3.7,1.6,5.3l0.5,0.9c0.3,0.5,0.6,1,1,1.5c1.7,0.1,3.3,0.1,4.7,0.1
				c2.8-0.1,5.1-0.4,6.9-1c0.3-0.1,0.5,0,0.6,0.3c0.1,0.3,0,0.5-0.3,0.6c-0.2,0.1-0.5,0.2-0.7,0.2c0,0,0,0,0,0
				c-1.4,0.4-3,0.7-4.9,0.8c-0.1,0-0.2,0-0.2,0c-0.7,0-1.5,0.1-2.4,0.1c-0.9,0-1.8,0-2.8-0.1c3.5,3.9,8.9,6.2,15.6,6.2
				c12.3,0,22.9-4.7,29.1-14.9H34.2z"/>
			<path class="st7" d="M37,56.4c0.7,3.3,2.5,6,5,7.7c2.8-0.1,5.1-0.4,6.9-1c0.3-0.1,0.5,0,0.6,0.3c0.1,0.3,0,0.5-0.3,0.6
				c-0.2,0.1-0.5,0.2-0.7,0.2c0,0,0,0,0,0c-1.4,0.4-3,0.7-4.9,0.8c4.9,2.5,11.9,2.5,20-0.6c4.9-1.9,9.6-4.7,13.8-8.1H37z"/>
		</g>
		<g class="st8">
			<path class="st9" d="M41,65.2c0.8,0,1.6,0,2.4-0.1c0.1,0,0.1,0,0.2,0c0,0,0,0,0,0c1.9-0.1,3.5-0.4,4.9-0.8c0,0,0,0,0,0
				c0.2-0.1,0.5-0.1,0.7-0.2c0.3-0.1,0.4-0.4,0.3-0.6c-0.1-0.3-0.4-0.4-0.6-0.3c-1.7,0.6-4,0.9-6.9,1c0,0,0,0,0,0
				c-1.4,0-3,0-4.7-0.1h0c-0.1,0-0.2,0-0.3,0c-0.3,0-0.5,0.2-0.5,0.5c0,0.3,0.2,0.5,0.5,0.5c0.3,0,0.7,0,1,0.1c0.1,0,0.1,0,0.2,0
				l0,0C39.1,65.2,40.1,65.2,41,65.2z"/>
		</g>
		<g id="Containers_1_">
			<path class="st10" d="M44.4,46h0.4v4.7h-0.4V46z M43.6,46H44v4.7h-0.5V46z M42.7,46h0.5v4.7h-0.5V46z M41.9,46h0.5v4.7h-0.5V46z
				 M41,46h0.5v4.7H41V46z M40.2,46h0.4v4.7h-0.4V46z M39.7,45.5h5.6v5.6h-5.6V45.5z"/>
			<path class="st10" d="M50.9,39.5h0.4v4.7h-0.4V39.5z M50.1,39.5h0.5v4.7h-0.5V39.5z M49.2,39.5h0.5v4.7h-0.5V39.5z M48.4,39.5
				h0.5v4.7h-0.5V39.5z M47.5,39.5H48v4.7h-0.5V39.5z M46.7,39.5h0.4v4.7h-0.4V39.5z M46.2,39.1h5.6v5.6h-5.6V39.1z"/>
			<path class="st11" d="M50.9,46h0.4v4.7h-0.4V46z M50.1,46h0.5v4.7h-0.5V46z M49.2,46h0.5v4.7h-0.5V46z M48.4,46h0.5v4.7h-0.5V46z
				 M47.5,46H48v4.7h-0.5V46z M46.7,46h0.4v4.7h-0.4V46z M46.2,45.5h5.6v5.6h-5.6V45.5z"/>
			<path class="st10" d="M57.4,46h0.4v4.7h-0.4V46z M56.5,46H57v4.7h-0.5V46z M55.7,46h0.5v4.7h-0.5V46z M54.8,46h0.5v4.7h-0.5V46z
				 M54,46h0.5v4.7H54V46z M53.1,46h0.4v4.7h-0.4V46z M52.7,45.5h5.6v5.6h-5.6V45.5z"/>
			<path class="st11" d="M57.4,39.5h0.4v4.7h-0.4V39.5z M56.5,39.5H57v4.7h-0.5V39.5z M55.7,39.5h0.5v4.7h-0.5V39.5z M54.8,39.5h0.5
				v4.7h-0.5V39.5z M54,39.5h0.5v4.7H54V39.5z M53.1,39.5h0.4v4.7h-0.4V39.5z M52.7,39.1h5.6v5.6h-5.6V39.1z"/>
			<path class="st11" d="M63.8,46h0.4v4.7h-0.4V46z M63,46h0.5v4.7H63V46z M62.1,46h0.5v4.7h-0.5V46z M61.3,46h0.5v4.7h-0.5V46z
				 M60.4,46h0.5v4.7h-0.5V46z M59.6,46H60v4.7h-0.4V46z M59.1,45.5h5.6v5.6h-5.6V45.5z"/>
			<path class="st10" d="M63.8,39.5h0.4v4.7h-0.4V39.5z M63,39.5h0.5v4.7H63V39.5z M62.1,39.5h0.5v4.7h-0.5V39.5z M61.3,39.5h0.5
				v4.7h-0.5V39.5z M60.4,39.5h0.5v4.7h-0.5V39.5z M59.6,39.5H60v4.7h-0.4V39.5z M59.1,39.1h5.6v5.6h-5.6V39.1z"/>
			<path class="st11" d="M63.8,33.1h0.4v4.7h-0.4V33.1z M63,33.1h0.5v4.7H63V33.1z M62.1,33.1h0.5v4.7h-0.5V33.1z M61.3,33.1h0.5
				v4.7h-0.5V33.1z M60.4,33.1h0.5v4.7h-0.5V33.1z M59.6,33.1H60v4.7h-0.4V33.1z M59.1,32.6h5.6v5.6h-5.6V32.6z"/>
			<path class="st10" d="M70.3,46h0.4v4.7h-0.4V46z M69.4,46h0.5v4.7h-0.5V46z M68.6,46H69v4.7h-0.5V46z M67.7,46h0.5v4.7h-0.5V46z
				 M66.9,46h0.5v4.7h-0.5V46z M66.1,46h0.4v4.7h-0.4V46z M65.6,45.5h5.6v5.6h-5.6V45.5z"/>
		</g>
		<path class="st12" d="M51.5,60.2c0.9,0,1.5,0.7,1.5,1.5s-0.7,1.5-1.5,1.5c-0.9,0-1.5-0.7-1.5-1.5S50.6,60.2,51.5,60.2"/>
		<path class="st3" d="M51.5,60.6c0.1,0,0.3,0,0.4,0.1c-0.1,0.1-0.2,0.2-0.2,0.4c0,0.2,0.2,0.5,0.5,0.5c0.2,0,0.3-0.1,0.4-0.2
			c0.1,0.1,0.1,0.3,0.1,0.4c0,0.6-0.5,1.1-1.1,1.1c-0.6,0-1.1-0.5-1.1-1.1C50.4,61.1,50.8,60.6,51.5,60.6"/>
		<path class="st3" d="M24.1,57H58h4.2H96c-1.6-0.4-5-0.9-4.4-3c-2.8,3.3-9.7,2.3-11.4,0.7c-1.9,2.8-13.2,1.7-13.9-0.4
			c-2.4,2.8-9.9,2.8-12.3,0c-0.8,2.2-12,3.2-13.9,0.4c-1.7,1.6-8.6,2.6-11.4-0.7C29.1,56.1,25.7,56.6,24.1,57"/>
		<path class="st13" d="M55.6,71.3c-3.8-1.8-5.9-4.3-7.1-7c-1.4,0.4-3.1,0.7-5.1,0.8c-0.7,0-1.5,0.1-2.4,0.1c-1,0-2,0-3-0.1
			c3.5,3.5,7.8,6.2,15.8,6.3C54.4,71.4,55,71.4,55.6,71.3z"/>
		<path class="st14" d="M49.9,66.8c-0.5-0.7-1-1.6-1.4-2.5c-1.4,0.4-3.1,0.7-5.1,0.8C44.7,65.9,46.7,66.6,49.9,66.8z"/>
	</g>
</g>
</svg>
