<svg xmlns="http://www.w3.org/2000/svg" viewBox="0 0 16 16"><style>.icon-canvas-transparent{opacity:0;fill:#f6f6f6}.icon-vs-bg{fill:#424242}.icon-vs-fg{fill:#f0eff1}.icon-vs-out{fill:#f6f6f6}</style><path class="icon-canvas-transparent" d="M0 0h16v16H0z" id="canvas"/><path class="icon-vs-out" d="M16 3.379L12.621 0H5v3H0v13h11v-3h5z" id="outline"/><path class="icon-vs-bg" d="M12.207 1H6v2h1V2h4v3h3v6h-3v1h4V3.793L12.207 1zM12 4V2.207L13.793 4H12zM1 4v11h9V6.793L7.207 4H1zm8 10H2V5h4v3h3v6zM7 7V5.207L8.793 7H7z" id="iconBg"/><path class="icon-vs-fg" d="M7 5.207L8.793 7H7V5.207zM6 8V5H2v9h7V8H6zm6-5.793V4h1.793L12 2.207zM11 5V2H7v1h.621L11 6.379V11h3V5h-3z" id="iconFg"/></svg>