<svg xmlns="http://www.w3.org/2000/svg" viewBox="0 0 16 16"><style>.icon-canvas-transparent{opacity:0;fill:#f6f6f6}.icon-vs-out_x0020_{fill:#f6f6f6}.azure-dark-blue{fill:#3999c6}.icon-vs-bg{fill:#424242}.azure-light-blue{fill:#92e0f7}</style><path class="icon-canvas-transparent" d="M16 16H0V0h16v16z" id="canvas"/><path class="icon-vs-out_x0020_" d="M16 7.318v2.895C13.96 15.948 12.584 16 12.108 16H0V0h7v4h6v3.578c.879-.17 1.696-.279 2.382-.279l.244.004.374.015z" id="outline"/><g id="iconBg"><path class="icon-vs-bg" d="M1 12.84s10.313-4.697 14.571-4.536c0 0-2.123 6.728-3.477 6.728L1 14.969V12.84z"/><path class="azure-light-blue" d="M2.724 11H2v-1h3v.006c-1 .327-2.173.971-2.276.994zM11 7V6H8v1h3zM5 7V6H2v1h3zm0-4V2H2v1h3z"/><path class="azure-dark-blue" d="M1.005 11.709L1 9h5v.668C5.723 9.776 5 10 5 10H2v1h.664c-1.226.48-1.286.548-1.659.709zM12 5v3H7V5h5zm-1 1H8v1h3V6zM6 5v3H1V5h5zM5 6H2v1h3V6zm1-5v3H1V1h5zM5 2H2v1h3V2z"/></g></svg>