<svg xmlns="http://www.w3.org/2000/svg" viewBox="0 0 16 16"><defs><style>.icon-canvas-transparent,.icon-vs-out{fill:#252526;}.icon-canvas-transparent{opacity:0;}.icon-vs-bg{fill:#c5c5c5;}</style></defs><title>Manufacture_16x</title><g id="canvas"><path class="icon-canvas-transparent" d="M16,0V16H0V0Z"/></g><g id="outline" style="display: none;"><path class="icon-vs-out" d="M16,9.225V12H10V9.214l.477-.769L9.629,7.178,8,8.327V13H9v3H0V13H1V7.637A3.642,3.642,0,0,1,1.489,5.73a3.49,3.49,0,0,1,3-1.7c.072,0,.141.016.212.021L8.328,1.5A2.689,2.689,0,0,1,9.814,1h.034a2.774,2.774,0,0,1,1.513.415A2.711,2.711,0,0,1,12.391,2.6c.008.02.013.04.021.06L15,6.514a2.341,2.341,0,0,1,.409,1.463,2.066,2.066,0,0,1-.035.295l.052.026Z" style="display: none;"/></g><g id="iconBg"><path class="icon-vs-bg" d="M14.726,9.052l-.65-.325A1.363,1.363,0,0,0,14.17,7.05L11.509,3.074a1.671,1.671,0,0,1-.174,1.539l1.214,1.813-.7.469L10.712,5.2,9.9,5.775l1.914,2.86a1.069,1.069,0,0,0,.094.108l-.625.312L11,9.5V11h1V9.808l1-.5,1,.5V11h1V9.5Zm-1.62-1.8.234.35a.429.429,0,0,1,.062.316.42.42,0,0,1-.495.331.416.416,0,0,1-.268-.179L12.4,7.726Z"/><path class="icon-vs-bg" d="M11.6,3.962a1.695,1.695,0,0,1-.7,1.1L7,7.81V7.5a2.452,2.452,0,0,0-.146-.81l3.466-2.441a.7.7,0,0,0,.29-.458.711.711,0,0,0-.852-.812.716.716,0,0,0-.252.113L6.03,5.539A2.46,2.46,0,0,0,4.988,5.05l3.94-2.775A1.707,1.707,0,0,1,11.6,3.962Z"/><path class="icon-vs-bg" d="M7,14V7.5a2.5,2.5,0,1,0-5,0V14H1v1H8V14ZM6,14H3V7.5a1.5,1.5,0,1,1,3,0ZM5.03,7.47A.747.747,0,0,1,5.25,8a.748.748,0,0,1-.463.693.75.75,0,0,1-.98-.98A.748.748,0,0,1,4.5,7.25.747.747,0,0,1,5.03,7.47Z"/></g></svg>